<svg width="1918" height="413" viewBox="0 0 1918 413" fill="none" xmlns="http://www.w3.org/2000/svg">
<path d="M3 230.5L64 291L194 162.5M216.5 203.5H308.5M170.5 249.5H262.5M123.5 295H216.5M382 314H319V239M319 175V98.5H257" stroke="black" stroke-width="7"/>
<circle cx="225.5" cy="98.5" r="30" stroke="black" stroke-width="7"/>
<circle cx="317.5" cy="206.5" r="30" stroke="black" stroke-width="7"/>
<circle cx="409.5" cy="314.5" r="30" stroke="black" stroke-width="7"/>
<path d="M706.273 160.039C703.586 151.815 700.044 144.446 695.648 137.933C691.332 131.338 686.162 125.72 680.137 121.079C674.193 116.438 667.435 112.896 659.863 110.453C652.291 108.01 643.986 106.789 634.948 106.789C620.13 106.789 606.654 110.616 594.523 118.269C582.391 125.923 572.742 137.2 565.577 152.1C558.412 167 554.83 185.279 554.83 206.937C554.83 228.595 558.453 246.874 565.699 261.774C572.946 276.674 582.757 287.951 595.133 295.605C607.509 303.258 621.432 307.085 636.902 307.085C651.232 307.085 663.853 304.032 674.763 297.925C685.755 291.737 694.304 283.025 700.411 271.789C706.599 260.472 709.693 247.159 709.693 231.852L718.975 233.806H643.742V206.937H739.004V233.806C739.004 254.406 734.608 272.318 725.814 287.544C717.102 302.77 705.052 314.576 689.663 322.962C674.356 331.267 656.769 335.42 636.902 335.42C614.756 335.42 595.296 330.209 578.523 319.787C561.832 309.365 548.805 294.546 539.441 275.331C530.159 256.115 525.518 233.318 525.518 206.937C525.518 187.152 528.164 169.361 533.457 153.566C538.83 137.688 546.403 124.173 556.173 113.018C565.944 101.863 577.506 93.3139 590.859 87.3702C604.212 81.4264 618.908 78.4545 634.948 78.4545C648.138 78.4545 660.433 80.4494 671.832 84.439C683.312 88.3472 693.531 93.9246 702.487 101.171C711.525 108.336 719.056 116.926 725.081 126.941C731.107 136.874 735.259 147.907 737.539 160.039H706.273ZM886.631 81.8742H916.92V260.675C916.92 276.634 913.989 290.19 908.126 301.345C902.264 312.5 894 320.967 883.334 326.748C872.667 332.529 860.088 335.42 845.595 335.42C831.916 335.42 819.744 332.936 809.077 327.97C798.411 322.922 790.025 315.756 783.918 306.474C777.812 297.192 774.758 286.16 774.758 273.377H804.559C804.559 280.46 806.309 286.648 809.81 291.941C813.393 297.152 818.278 301.223 824.466 304.154C830.654 307.085 837.697 308.551 845.595 308.551C854.307 308.551 861.716 306.719 867.823 303.055C873.929 299.391 878.57 294.017 881.746 286.933C885.003 279.768 886.631 271.016 886.631 260.675V81.8742ZM977.619 332V81.8742H1007.91V193.258H1141.28V81.8742H1171.56V332H1141.28V220.127H1007.91V332H977.619ZM1359.22 81.8742V332H1328.93V81.8742H1359.22ZM1618.29 81.8742V332H1588.98L1452.68 135.612H1450.24V332H1419.95V81.8742H1449.26L1586.05 278.751H1588.49V81.8742H1618.29ZM1880.17 160.039H1849.88C1848.09 151.326 1844.96 143.673 1840.48 137.078C1836.08 130.483 1830.71 124.946 1824.36 120.468C1818.09 115.908 1811.13 112.489 1803.47 110.209C1795.82 107.929 1787.84 106.789 1779.54 106.789C1764.39 106.789 1750.67 110.616 1738.38 118.269C1726.16 125.923 1716.43 137.2 1709.19 152.1C1702.02 167 1698.44 185.279 1698.44 206.937C1698.44 228.595 1702.02 246.874 1709.19 261.774C1716.43 276.674 1726.16 287.951 1738.38 295.605C1750.67 303.258 1764.39 307.085 1779.54 307.085C1787.84 307.085 1795.82 305.945 1803.47 303.665C1811.13 301.386 1818.09 298.007 1824.36 293.529C1830.71 288.969 1836.08 283.392 1840.48 276.796C1844.96 270.12 1848.09 262.466 1849.88 253.836H1880.17C1877.89 266.619 1873.74 278.058 1867.72 288.155C1861.69 298.251 1854.2 306.841 1845.24 313.925C1836.29 320.927 1826.23 326.26 1815.08 329.924C1804 333.588 1792.16 335.42 1779.54 335.42C1758.2 335.42 1739.23 330.209 1722.62 319.787C1706.01 309.365 1692.94 294.546 1683.42 275.331C1673.89 256.115 1669.13 233.318 1669.13 206.937C1669.13 180.557 1673.89 157.759 1683.42 138.543C1692.94 119.328 1706.01 104.509 1722.62 94.0874C1739.23 83.6655 1758.2 78.4545 1779.54 78.4545C1792.16 78.4545 1804 80.2865 1815.08 83.9505C1826.23 87.6144 1836.29 92.9882 1845.24 100.072C1854.2 107.074 1861.69 115.623 1867.72 125.72C1873.74 135.734 1877.89 147.174 1880.17 160.039Z" fill="#3b82f6"/>
</svg>
